<svg xmlns="http://www.w3.org/2000/svg" viewBox="0 0 228.48 86.88">
  <g>
    <g>
      <path d="M0,22.81c.34-1.72.62-3.44,1-5.14A40.25,40.25,0,0,1,8.62,2.57a1.94,1.94,0,0,1,1.71-.86c2.32.05,4.64,0,7,0,.31,0,.72-.14.89.16s-.19.65-.38.93a59,59,0,0,0-8.49,17A25.06,25.06,0,0,0,10.67,38.2a85.68,85.68,0,0,1,7,19.21c1.75,8.19.9,16-3.68,23.14a2.4,2.4,0,0,1-2.42,1.29c-1.91-.1-3.84,0-5.75,0-.75,0-1.1-.09-.56-.91,4-6.16,4.8-13,4.17-20.13A59.39,59.39,0,0,0,3.81,41.07,37.8,37.8,0,0,1,.23,29.46,1.5,1.5,0,0,0,0,29Z" style="fill: #5aaba8"/>
      <path d="M228.44,67.9c-.32,1.51-.58,3-1,4.54a28,28,0,0,1-3.83,8.61,1.92,1.92,0,0,1-1.85,1c-2.07-.06-4.15,0-6.23,0-.73,0-1-.14-.51-.85,4.32-6.61,5-13.92,4.09-21.53a61.24,61.24,0,0,0-5.94-19.38A32.74,32.74,0,0,1,210,23.2a37.13,37.13,0,0,1,6.76-18.09c2.17-3.17,2.16-3.17,6-3.17h5.64v.24c-1.59,3.8-4.27,7-5.95,10.78A47.36,47.36,0,0,0,219,23.38a24.28,24.28,0,0,0,2.39,15.45,100.53,100.53,0,0,1,5.85,15,35.79,35.79,0,0,1,1.1,8c0,.27-.08.56.12.8Z" style="fill: #5aaba8"/>
      <path d="M62.39,41.75V80.24c0,1.57,0,1.57-1.58,1.57s-3.44,0-5.15,0c-1,0-1.22-.35-1.22-1.25,0-5.08,0-10.16,0-15.23,0-1.24-.37-1.57-1.57-1.54-3.11.08-6.23.06-9.35,0-1,0-1.3.34-1.29,1.31,0,5.08,0,10.16,0,15.23,0,1.17-.34,1.54-1.5,1.48a49.15,49.15,0,0,0-5.15,0c-1.1,0-1.34-.37-1.33-1.39,0-5.07,0-10.15,0-15.22,0-1.11-.34-1.45-1.43-1.42-2.32.08-4.64,0-7,0a1.35,1.35,0,0,1-1.37-.71c-1-1.69-2-3.36-3.05-5-.48-.76-.36-1,.56-1,3.56,0,7.12,0,10.68,0,1.54,0,1.55,0,1.55-1.6V3.58c0-1.85,0-1.85,1.79-1.85,1.6,0,3.2.06,4.8,0C42,1.66,42.31,2,42.31,3.08c0,7.11,0,14.23,0,21.34q0,15.46,0,30.94c0,1.74,0,1.74,1.78,1.74,3,0,5.92-.06,8.88,0,1.25,0,1.53-.4,1.53-1.57q-.06-26,0-51.93c0-1.9,0-1.9,1.87-1.9,1.56,0,3.12.06,4.68,0,1.11-.06,1.42.34,1.41,1.43,0,9.07,0,18.15,0,27.22Z" style="fill: #5aaba8"/>
      <path d="M75.36,38.4c0-11.72,0-23.43,0-35.14,0-1.2.29-1.63,1.53-1.56a51.66,51.66,0,0,0,5.28,0c1,0,1.42.26,1.38,1.34-.08,2.16,0,4.32,0,6.48V71.17c0,3.12.41,3.71,3.55,4.26a13.16,13.16,0,0,0,6.17-.26c1.85-.58,2.29-1.19,2.29-3.12V3.45c0-1.72,0-1.72,1.67-1.72,1.88,0,3.76,0,5.64,0,.77,0,1.12.26,1.06,1.05,0,.35,0,.72,0,1.08,0,23,0,46.05,0,69.07,0,3.66-1.57,6.06-4.78,7.41A22.93,22.93,0,0,1,80,80.05a7.39,7.39,0,0,1-4.66-7.48C75.45,61.18,75.36,49.79,75.36,38.4Z" style="fill: #5aaba8"/>
      <path d="M140.16,62.21q0,9.16,0,18.35c0,.55.22,1.35-.89.81-12-5.8-21.17-14.42-25.69-27.14-4.84-13.64-2.29-26.21,6.8-37.43A55.57,55.57,0,0,1,139,2.36c1.11-.55,1.15-.52,1.16.76,0,1.48-.05,3,0,4.43a2,2,0,0,1-1.05,2,46.12,46.12,0,0,0-14.35,14.9,33.3,33.3,0,0,0-4.73,18.43c.39,8.73,3.83,16.23,9.51,22.77.63.72,1.28,1.43,1.94,2.13.38.4.62.28.65-.26,0-.36,0-.72,0-1.08V44.57c0-1.86,0-1.86,1.91-1.86,1.6,0,3.2,0,4.8,0,1,0,1.3.3,1.3,1.29C140.14,50.06,140.16,56.13,140.16,62.21Z" style="fill: #5aaba8"/>
      <path d="M199.78,1.73c1,0,2,0,3,0,.73,0,1,.29.93,1-.19,3.19-.34,6.38-.51,9.57-.22,4.18-.49,8.36-.64,12.55-.05,1.11-.32,1.61-1.5,1.52s-2.32,0-3.48,0c-.75,0-1.05-.24-1.07-1-.13-5-.31-10-.46-15-.08-2.52-.14-5-.25-7.55,0-.84.28-1.14,1.11-1.1S198.82,1.73,199.78,1.73Z" style="fill: #5aaba8"/>
      <path d="M186.93,45c0,11.76,0,23.51,0,35.26,0,1.18-.26,1.64-1.52,1.56-1.79-.11-3.6-.08-5.4,0-1,0-1.3-.29-1.29-1.29,0-5,0-10,0-15,0-1.12-.26-1.54-1.45-1.51-3.12.08-6.24.06-9.36,0-1,0-1.39.32-1.38,1.37,0,5,0,9.91,0,14.87,0,1.18-.3,1.65-1.55,1.56-1.47-.11-3,0-4.43,0-1.73,0-1.73,0-1.73-1.67V65.87c0-1.8,0-1.8-1.86-1.8-2.07,0-4.15,0-6.23,0a1.78,1.78,0,0,1-1.75-1c-1.12-1.8-2.28-3.57-3.46-5.33-.5-.74-.29-.93.53-.93,3.48,0,7,0,10.43,0,2.56,0,2.33.37,2.34-2.27V10.7a7.93,7.93,0,0,1,4.21-7.29,14.39,14.39,0,0,1,6-1.83c4.08-.35,8.13-.38,12.08,1a8.53,8.53,0,0,1,5.36,5.27,6.14,6.14,0,0,1,.32,2.12Q186.93,27.52,186.93,45Zm-8.16-22.93c0-3.28,0-6.56,0-9.83,0-2.2-.71-3-2.87-3.47a15.73,15.73,0,0,0-4.17-.19c-4.25.35-5.1,1.24-5.1,5.51V55.25c0,1.61,0,1.61,1.56,1.62,3,0,6.08,0,9.12,0,1.13,0,1.5-.29,1.49-1.46,0-7.16,0-14.31,0-21.47Z" style="fill: #5aaba8"/>
    </g>
    <rect width="228.48" height="86.88" style="fill: none"/>
  </g>
</svg>
