<?xml version="1.0" encoding="utf-8"?>
<!-- Generator: Adobe Illustrator 25.2.3, SVG Export Plug-In . SVG Version: 6.00 Build 0)  -->
<svg version="1.1" id="Layer_1" xmlns="http://www.w3.org/2000/svg" xmlns:xlink="http://www.w3.org/1999/xlink" x="0px" y="0px"
	 viewBox="0 0 250 86.9" style="enable-background:new 0 0 250 86.9;" xml:space="preserve">
<g>
	<g>
		<path d="M0,22.7c0.4-1.9,0.7-3.8,1.1-5.6c1.6-6,4.4-11.7,8.3-16.5c0.4-0.6,1.1-1,1.9-0.9c2.5,0.1,5.1,0,7.7,0c0.3,0,0.8-0.2,1,0.2
			s-0.2,0.7-0.4,1c-4.1,5.7-7.2,11.9-9.3,18.6c-2.2,6.5-1.6,13.7,1.4,20c3.4,6.7,6,13.7,7.7,21c1.9,9,1,17.5-4,25.3
			c-0.5,1-1.6,1.5-2.6,1.4c-2.1-0.1-4.2,0-6.3,0c-0.8,0-1.2-0.1-0.6-1c4.4-6.7,5.3-14.2,4.6-22c-0.8-7.5-2.9-14.8-6.1-21.6
			c-2-4-3.3-8.3-3.9-12.7c-0.1-0.2-0.1-0.4-0.3-0.5v-6.7H0z"/>
		<path d="M250,72c-0.4,1.7-0.6,3.3-1.1,5c-0.9,3.4-2.3,6.5-4.2,9.4c-0.4,0.7-1.2,1.2-2,1.1c-2.3-0.1-4.5,0-6.8,0
			c-0.8,0-1.1-0.2-0.6-0.9c4.7-7.2,5.5-15.2,4.5-23.6c-1-7.4-3.2-14.5-6.5-21.2c-2.8-5.8-4-12.3-3.5-18.7c0.7-7.1,3.2-14,7.4-19.8
			c2.4-3.5,2.4-3.5,6.6-3.5h6.2v0.3c-1.7,4.2-4.7,7.7-6.5,11.8c-1.7,3.6-3,7.5-3.8,11.4c-1,5.8-0.1,11.7,2.6,16.9
			c2.6,5.3,4.7,10.8,6.4,16.4c0.7,2.9,1.1,5.8,1.2,8.8c0,0.3-0.1,0.6,0.1,0.9L250,72z"/>
		<path d="M68.3,43.4v42.1c0,1.7,0,1.7-1.7,1.7s-3.8,0-5.6,0c-1.1,0-1.3-0.4-1.3-1.4c0-5.6,0-11.1,0-16.7c0-1.4-0.4-1.7-1.7-1.7
			c-3.4,0.1-6.8,0.1-10.2,0c-1.1,0-1.4,0.4-1.4,1.4c0,5.6,0,11.1,0,16.7c0,1.3-0.4,1.7-1.6,1.6c-1.9-0.1-3.8-0.1-5.6,0
			c-1.2,0-1.5-0.4-1.5-1.5c0-5.5,0-11.1,0-16.7c0-1.2-0.4-1.6-1.6-1.6c-2.5,0.1-5.1,0-7.7,0c-0.6,0.1-1.2-0.2-1.5-0.8
			c-1.1-1.8-2.2-3.7-3.3-5.5c-0.5-0.8-0.4-1.1,0.6-1.1c3.9,0,7.8,0,11.7,0c1.7,0,1.7,0,1.7-1.8V1.6c0-2,0-2,2-2c1.8,0,3.5,0.1,5.3,0
			c1.3-0.1,1.7,0.3,1.7,1.5c0,7.8,0,15.6,0,23.4c0,11.3,0,22.6,0,33.9c0,1.9,0,1.9,1.9,1.9c3.3,0,6.5-0.1,9.7,0
			c1.4,0,1.7-0.4,1.7-1.7c0-19,0-37.9,0-56.8c0-2.1,0-2.1,2-2.1c1.7,0,3.4,0.1,5.1,0c1.2-0.1,1.6,0.4,1.5,1.6c0,9.9,0,19.9,0,29.8
			L68.3,43.4z"/>
		<path d="M82.5,39.7c0-12.8,0-25.6,0-38.5c0-1.3,0.3-1.8,1.7-1.7c1.9,0.1,3.9,0.1,5.8,0c1.1,0,1.6,0.3,1.5,1.5
			c-0.1,2.4,0,4.7,0,7.1v67.5c0,3.4,0.4,4.1,3.9,4.7c2.2,0.4,4.6,0.3,6.8-0.3c2-0.6,2.5-1.3,2.5-3.4V1.5c0-1.9,0-1.9,1.8-1.9
			c2.1,0,4.1,0,6.2,0c0.8,0,1.2,0.3,1.2,1.1c0,0.4,0,0.8,0,1.2c0,25.2,0,50.4,0,75.6c0,4-1.7,6.6-5.2,8.1c-6.7,3-14.4,2.8-21-0.3
			c-3.3-1.3-5.4-4.6-5.1-8.2C82.6,64.6,82.5,52.2,82.5,39.7z"/>
		<path d="M153.4,65.8c0,6.7,0,13.4,0,20.1c0,0.6,0.2,1.5-1,0.9c-13.1-6.3-23.2-15.8-28.1-29.7c-5.3-14.9-2.5-28.7,7.4-41
			c5.6-6.7,12.5-12.1,20.4-15.8c1.2-0.6,1.3-0.6,1.3,0.8c0,1.6-0.1,3.3,0,4.8c0.1,0.9-0.4,1.8-1.1,2.2c-6.4,4.2-11.8,9.8-15.7,16.3
			c-3.7,6.1-5.4,13.1-5.2,20.2c0.4,9.6,4.2,17.8,10.4,24.9c0.7,0.8,1.4,1.6,2.1,2.3c0.4,0.4,0.7,0.3,0.7-0.3c0-0.4,0-0.8,0-1.2V46.5
			c0-2,0-2,2.1-2c1.8,0,3.5,0,5.3,0c1.1,0,1.4,0.3,1.4,1.4C153.4,52.5,153.4,59.1,153.4,65.8z"/>
		<path d="M218.6-0.4c1.1,0,2.2,0,3.3,0c0.8,0,1.1,0.3,1,1.1c-0.2,3.5-0.4,7-0.6,10.5c-0.2,4.6-0.5,9.1-0.7,13.7
			c-0.1,1.2-0.4,1.8-1.6,1.7c-1.3-0.1-2.5,0-3.8,0c-0.8,0-1.1-0.3-1.2-1.1c-0.1-5.5-0.3-10.9-0.5-16.4c-0.1-2.8-0.2-5.5-0.3-8.3
			c0-0.9,0.3-1.2,1.2-1.2C216.4-0.4,217.6-0.4,218.6-0.4z"/>
		<path d="M204.6,46.9c0,12.9,0,25.7,0,38.6c0,1.3-0.3,1.8-1.7,1.7c-2-0.1-3.9-0.1-5.9,0c-1.1,0-1.4-0.3-1.4-1.4
			c0-5.5,0-10.9,0-16.4c0-1.2-0.3-1.7-1.6-1.7c-3.4,0.1-6.8,0.1-10.2,0c-1.1,0-1.5,0.4-1.5,1.5c0,5.5,0,10.8,0,16.3
			c0,1.3-0.3,1.8-1.7,1.7c-1.6-0.1-3.3,0-4.8,0c-1.9,0-1.9,0-1.9-1.8V69.8c0-2,0-2-2-2c-2.3,0-4.5,0-6.8,0c-0.8,0.1-1.6-0.4-1.9-1.1
			c-1.2-2-2.5-3.9-3.8-5.8c-0.5-0.8-0.3-1,0.6-1c3.8,0,7.7,0,11.4,0c2.8,0,2.5,0.4,2.6-2.5v-48c-0.1-3.3,1.7-6.4,4.6-8
			c2-1.1,4.3-1.8,6.6-2c4.5-0.4,8.9-0.4,13.2,1.1c2.7,0.9,4.9,3,5.9,5.8c0.3,0.7,0.4,1.5,0.4,2.3C204.5,21.4,204.6,34.2,204.6,46.9z
			 M195.6,21.8c0-3.6,0-7.2,0-10.8c0-2.4-0.8-3.3-3.1-3.8c-1.5-0.3-3-0.3-4.6-0.2c-4.7,0.4-5.6,1.4-5.6,6v45c0,1.8,0,1.8,1.7,1.8
			c3.3,0,6.7,0,10,0c1.2,0,1.6-0.3,1.6-1.6c0-7.8,0-15.7,0-23.5L195.6,21.8z"/>
	</g>
</g>
</svg>
