<svg xmlns="http://www.w3.org/2000/svg" viewBox="0 0 209.82 203.19" style="fill: #fff">
  <g>
    <g>
      <path d="M119.41,81.09c-10.54-.93-5.37-.5-8.42-.72-14.37-1-29.63-2.05-43-1.45-10.13.46-15.79.73-30.32.73,5.89-8,16.84-15.2,16.84-24.61a114,114,0,0,1,6.74-38.35C64.8,6.8,65.2,3.27,68.87,2.22,73.08,1,76.61.59,84.87.05c1.68-.11,4.22,0,5.9,0,2.53,0,4.22,0,6.74,0,10.27-.14,23.11,1.44,37.06,2.89,1.67.18,3.37,2.17,3.37,2.17,5.05,6.52,4.61,13.77,5.05,20.27.74,10.85.84,22.24,1.68,34,5.06,7.23,8.38,12.41,11.8,21.7,1,2.84-4.22,3-5.9,2.89-13.73-.59-20-2.47-30.32-2.89Z" style="fill: #00b1b0"/>
      <path d="M11,168.33c-1.77.54-2.78,1.44-4.46,1.44,1.29-3.7,2.74-6.62,5.84-8.36a36.25,36.25,0,0,1,11.26-3.57c2.94-.44,4.52-1.08,7.52-1.34,3.17-.3,6.56-1,9.74-1.4,2.06-.22,4-.45,5.75-.63,2.52-.27,5-.24,7.26-1.59.8-.48-.33-1.1.51-1.67a21.88,21.88,0,0,1,4.49-2c.84-.73,1.59,1.08,2.52.45,1.79-1.22,2.37-1.31,5.16-2.95a1.9,1.9,0,0,1,.74.82,1.92,1.92,0,0,1-.34,1.39s-.27.53-.29.55c-1.4,2.35-7.28,5.72-9.79,6.87a36.11,36.11,0,0,1-6.29,2.37c-.51.13,1.49-1.42.5-1.19-2.15.51-3.67,1.19-5.12,1.58-2.17.6-3.84.84-4.62,1.11a49.27,49.27,0,0,1-6.94,2A11.5,11.5,0,0,0,30,163.48" style="fill: #00b1b0"/>
      <path d="M51.13,88.28c.75-1.72,50.91,13.54,52.68,15a16.27,16.27,0,0,1,4.44,5.91,19,19,0,0,1,1.8,6c0,.89.2,1.81.23,3.07s-2.83,22.37-3,23.35a24.58,24.58,0,0,1-1,5.38c-1,2.4-2.46,4.56-4.9,4.93-2.68.4-6.22-.24-8.9-.5a52.08,52.08,0,0,1-9-1.52c-2.24-.53-7.33-2.25-8.69-2.71-4.48-1.53-6.44-2-8.61-4.47A102.11,102.11,0,0,1,57.91,130c-.88-2-2.57-9.35-3.71-14.88-.53-2.53-3.07-26.86-3.07-26.86" style="fill: #00b1b0"/>
    </g>
    <polyline points="103.39 98.83 112.66 96.28 118.09 95.25 129.37 93.39 136.45 92.5 151.19 91.59 163.61 91.96 164.56 92.93 164.96 94.13 164.82 97.42 163.43 102.73 159.4 115.47 156.94 122.09 155.68 125.61 154.27 128.55 151.9 132.66 149.64 136.83 148.04 138.86 145 141.7 138.22 147.06 135.22 148.89 132.56 149.6 129.8 150.08 126.13 150.42 119.74 150.91 113.5 151.07 111.91 151.05 110.59 150.46 109.39 149.42 108.87 148.4 112.03 126.87 113.12 115.7 112.2 110.98 110.13 106.14" style="fill: #00b1b0"/>
    <g>
      <path d="M172.33,169.86c-11.79-3.62-28.79-.07-40.87-1-7.38-.59-14.51-2.53-18.38-4.74,8.76-.74,16.63-1.7,24.07-6.16,3.09-1.85,10.06,4.07,16.52,3.77-3.38-2.18-7.09-2.21-10.4-4.45-1.31-.88-4.07-3.8-3.28-4,4-1.14,14.49,2.28,18.42,5-1.74.67-2.75.56-2.29,1.17,1.9,2.47,28.84,7.16,44.07,12.35,3.23,1.1,7.1,4.64,9.63,7.53-5.06.72-8.43-1.44-13.48-2.89-.84,0-.84.73-.84,1.45,1.68,2.16,5.89,2.16,5.89,4.34,2.52,7.24,3.37,13.74.84,21-9.27,0-21.8-.5-31.07-.5,3.26-3.9,3.6-7.26,4.46-11.08.9-4,3.79-8.8,4.9-14.11a7.38,7.38,0,0,0-1-3.72,6.88,6.88,0,0,0-3.38-2.72" style="fill: #00b1b0"/>
      <path d="M171.07,171.29l-4.22-.92-4.13-.25-6.81.11-12.08.07-9.54.56-6.67-.31-8.35-1.34L110.43,167l-6.4-2.9-7.44.24-8.91-.24-6.53-1-6.33-1.7-4.55-4L68,153.12l-6.66,3.43-6.39,2.83-10.25,3.07-8,1.63-7.58,1-6.25,1-5.68,1.32-4.09,2C.38,191.19.1,201.61,0,202.34c55.59,0,111.43.58,167,.58,3.37-5.08,4.22-11.58,6.75-17.37,0-1.45,2-5.13,2.45-8.08.5-3.55-.1-3.69-2.28-5" style="fill: #00b1b0"/>
      <path d="M169.1,182.79a3.17,3.17,0,0,1-2.4-.41,5.09,5.09,0,0,1-2-2.62,7.58,7.58,0,0,1,.77-3.88c-.06.09.36-.3.83-.25s1.16.56,1.11.7c-.48,1.53-2,3.62-.64,4.3,2.28,1.12,2-1.15,1.91-2.49-.05-.59,1.25-.59,1.41-.26a4.63,4.63,0,0,1,0,4.24,2.35,2.35,0,0,1-1,.67" style="fill: #fff"/>
    </g>
    <polygon points="71.55 147.62 82.39 151.28 88.45 152.79 92.76 153.26 96.42 153.3 101.27 153.34 102.19 153.6 102.94 154.55 102.83 157.13 102.27 159.05 101.43 160.76 99.73 161.55 97.97 162.06 87.79 161.82 81.33 160.62 78.03 159.85 76.06 159.05 74.46 158.02 72.45 156.14 70.59 154.12 70.55 152.18 70.33 150.15 70.5 148.26 71.55 147.62" style="fill: #00b1b0"/>
    <g>
      <path d="M107,151.87l1,.13.46.87-.24,3-.38,3.37-.59,2-1,.08-1-.22,0-3.18s.42-4.09.64-4.09.52-1.38.52-1.38" style="fill: #00b1b0"/>
      <path d="M112.58,152.5l5,.49,6.59-.56,2.72-.31,3.12-.51s1.88-.3,2.23-.34,1.16-.09,1.16-.09l.18.6-.13,2.51-.06,2.64-2.29,1.41-3.27,1.34-3.19,1-3.79.77-4.91.5s-1.4,0-2.52-.14a5.62,5.62,0,0,1-1.35-.28c.07,0-.7-.38-.79-.8a2.63,2.63,0,0,1,.06-1.1l.36-3.41.43-3.05Z" style="fill: #00b1b0"/>
      <path d="M107.16,90.22l5.75-4.17s1.73-1.52,1.83-1.52,2-.43,2-.43l1.4-.27,1.76,0,1.87.1,1.51.4,2,.83,1.37.44.82.27-.86,1.6-1.51,1.28-2.41,1.82-2.12.77-2.27.78-2.7-.16-3.34-.37-2.65-.87Z" style="fill: #fff"/>
      <path d="M107.16,90.22l5.75-4.17s1.73-1.52,1.83-1.52,2-.43,2-.43l1.4-.27,1.76,0,1.87.1,1.51.4,2,.83,1.37.44.82.27-.86,1.6-1.51,1.28-2.41,1.82-2.12.77-2.27.78-2.7-.16-3.34-.37-2.65-.87Z" style="fill: none;stroke: #807f83;stroke-width: 1.087px"/>
      <path d="M109.28,86.17a1.06,1.06,0,0,1,1.08,1,1,1,0,0,1-1.08-1" style="fill: #807f83"/>
      <path d="M108.18,86.85a1.17,1.17,0,0,1,.76.34,1.15,1.15,0,0,1,.34.77,1.13,1.13,0,0,1-.76-.35,1.08,1.08,0,0,1-.34-.76" style="fill: #807f83"/>
      <path d="M110.21,85.49a1,1,0,0,1,.73.28,1,1,0,0,1,.31.71,1,1,0,0,1-.72-.28,1,1,0,0,1-.32-.71" style="fill: #807f83"/>
      <path d="M111.43,84.79a.87.87,0,0,1,.61.37.85.85,0,0,1,.1.71.83.83,0,0,1-.6-.38.85.85,0,0,1-.11-.7" style="fill: #807f83"/>
      <path d="M111.69,84.35a1,1,0,0,1,1.14.89,1,1,0,0,1-1.14-.89" style="fill: #807f83"/>
      <path d="M112.87,83.64a.86.86,0,0,1,.57.44.4.4,0,1,1-.53.28.88.88,0,0,1,0-.72" style="fill: #807f83"/>
      <path d="M113.55,83.17a1.08,1.08,0,0,1,.7.42,1.06,1.06,0,0,1,.24.79,1.12,1.12,0,0,1-.7-.42,1.1,1.1,0,0,1-.24-.79" style="fill: #807f83"/>
      <path d="M114.31,82.84a1.76,1.76,0,0,1,.82.69,1.79,1.79,0,0,1,.32,1,1.76,1.76,0,0,1-.82-.69,1.79,1.79,0,0,1-.32-1" style="fill: #807f83"/>
      <path d="M115.28,82.37a1.44,1.44,0,0,1,.59.72,1.36,1.36,0,0,1,0,.92,1.43,1.43,0,0,1-.62-1.64" style="fill: #807f83"/>
      <path d="M117.22,82.05a1.23,1.23,0,0,1,.33.81,1.18,1.18,0,0,1-.26.84,1.3,1.3,0,0,1-.07-1.65" style="fill: #807f83"/>
      <path d="M118.66,81.94a1.42,1.42,0,0,1,.37.89,1.38,1.38,0,0,1-.23.93,1.54,1.54,0,0,1-.14-1.82" style="fill: #807f83"/>
      <path d="M120.24,82a1.37,1.37,0,0,1,0,1.71,1.37,1.37,0,0,1,0-1.71" style="fill: #807f83"/>
      <path d="M121.65,81.94a1.57,1.57,0,0,1,0,1,1.53,1.53,0,0,1-.54.85,1.57,1.57,0,0,1,0-1,1.59,1.59,0,0,1,.54-.85" style="fill: #807f83"/>
      <path d="M123.41,81.9a2.26,2.26,0,0,1-.3,1.13,2.08,2.08,0,0,1-.82.82,2.06,2.06,0,0,1,.3-1.12,2,2,0,0,1,.82-.83" style="fill: #807f83"/>
      <path d="M124.59,82.21a2.3,2.3,0,0,1-.25,1.18,2.17,2.17,0,0,1-.79.9,2.24,2.24,0,0,1,.25-1.17,2.35,2.35,0,0,1,.79-.91" style="fill: #807f83"/>
      <path d="M125.75,82.65a2.12,2.12,0,0,1-.22,1.16,2.15,2.15,0,0,1-.75.91,2.2,2.2,0,0,1,.21-1.16,2.12,2.12,0,0,1,.76-.91" style="fill: #807f83"/>
      <path d="M127.26,83.51s-1.8,1.3-1.62,1.43" style="fill: #807f83"/>
      <path d="M127.26,83.51a2.21,2.21,0,0,1-.69.9,3.12,3.12,0,0,1-.45.29l-.25.12c-.08,0-.19.05-.23.12s0-.12,0-.17a.88.88,0,0,1,0-.15,1.17,1.17,0,0,1,.15-.27,1.9,1.9,0,0,1,.39-.41,1.85,1.85,0,0,1,1.06-.43" style="fill: #807f83"/>
      <path d="M127.76,84a1.53,1.53,0,0,1-.49.87,1.63,1.63,0,0,1-.9.44,1.59,1.59,0,0,1,.49-.87,1.63,1.63,0,0,1,.9-.44" style="fill: #807f83"/>
      <path d="M129,84.66a1.54,1.54,0,0,1-.62.78,1.57,1.57,0,0,1-1,.3A1.57,1.57,0,0,1,128,85a1.59,1.59,0,0,1,1-.29" style="fill: #807f83"/>
      <path d="M115.07,93.22a.77.77,0,0,1-.32-.61A.79.79,0,0,1,115,92a.78.78,0,0,1,.31.61.82.82,0,0,1-.27.63" style="fill: #807f83"/>
      <path d="M116.76,93.34a.72.72,0,0,1,0-1.18.74.74,0,0,1,0,1.18" style="fill: #807f83"/>
      <path d="M118.29,93.53a.91.91,0,0,1-.34-.67.93.93,0,0,1,.24-.72.93.93,0,0,1,.35.67.94.94,0,0,1-.25.72" style="fill: #807f83"/>
      <path d="M119.74,92.91a.87.87,0,0,1-.36-1.27.91.91,0,0,1,.47.55.88.88,0,0,1-.11.72" style="fill: #807f83"/>
      <path d="M121.14,93.37a1.77,1.77,0,0,1-.6-.89,1.82,1.82,0,0,1-.05-1.09,1.75,1.75,0,0,1,.61.9,1.79,1.79,0,0,1,0,1.08" style="fill: #807f83"/>
      <path d="M122.58,92.72a1.7,1.7,0,0,1-.76-.71,1.75,1.75,0,0,1-.25-1,1.6,1.6,0,0,1,.76.71,1.75,1.75,0,0,1,.25,1" style="fill: #807f83"/>
      <path d="M123.88,92.2a1.72,1.72,0,0,1-.93-.5,1.74,1.74,0,0,1-.52-.93,1.78,1.78,0,0,1,.94.5,1.88,1.88,0,0,1,.51.93" style="fill: #807f83"/>
      <path d="M125.14,91.48a2.49,2.49,0,0,1-1.44-1.88,2.26,2.26,0,0,1,1,.76,2.33,2.33,0,0,1,.49,1.12" style="fill: #807f83"/>
      <path d="M126,90.77a1.93,1.93,0,0,1-1-.54,2,2,0,0,1-.55-1A2.1,2.1,0,0,1,126,90.77" style="fill: #807f83"/>
      <path d="M126.72,89.84a1.53,1.53,0,0,1-.9-.4,1.51,1.51,0,0,1-.5-.86,1.6,1.6,0,0,1,.9.41,1.64,1.64,0,0,1,.5.85" style="fill: #807f83"/>
      <path d="M127.76,89a1.52,1.52,0,0,1-1-.18,1.58,1.58,0,0,1-.69-.71,1.53,1.53,0,0,1,1,.18,1.52,1.52,0,0,1,.68.71" style="fill: #807f83"/>
      <path d="M128.66,88a1.86,1.86,0,0,1-2-.53,1.75,1.75,0,0,1,1.06,0,1.82,1.82,0,0,1,.91.55" style="fill: #807f83"/>
      <path d="M129.38,87.16a2.47,2.47,0,0,1-2.34-.4,2.54,2.54,0,0,1,2.34.4" style="fill: #807f83"/>
      <path d="M113.84,92.84a.63.63,0,0,1-.21-.57.64.64,0,0,1,.39-.47.65.65,0,0,1,.2.57.63.63,0,0,1-.38.47" style="fill: #807f83"/>
      <path d="M112.48,92.44a.46.46,0,0,1-.2-.46c0-.14.12-.26.38-.34a.49.49,0,0,1,.2.47.48.48,0,0,1-.38.33" style="fill: #807f83"/>
      <path d="M111.23,92c-.11-.25-.08-.38,0-.48s.2-.16.47-.11a.44.44,0,0,1,0,.48.43.43,0,0,1-.46.11" style="fill: #807f83"/>
      <path d="M109.78,91.45c-.16-.2-.16-.32-.12-.42s.15-.15.41-.13c.16.2.16.31.12.41s-.15.15-.41.14" style="fill: #807f83"/>
      <path d="M108.57,90.93c-.06-.25,0-.36.06-.43s.2-.09.44,0c.06.25,0,.36-.06.43s-.21.09-.44,0" style="fill: #807f83"/>
      <path d="M121.36,85.05a5.28,5.28,0,0,1-.29,3.24,3.83,3.83,0,0,1-2.74,2A4,4,0,0,1,115,89.13a8.13,8.13,0,0,1-1.11-2.82c-.66-1.73,7.11-3,7.51-1.26" style="fill: #807f83"/>
      <path d="M121.36,85.05a.82.82,0,0,0-.44-.51,2.56,2.56,0,0,0-.66-.22,5.79,5.79,0,0,0-1.38-.07,11.26,11.26,0,0,0-2.71.49,7.38,7.38,0,0,0-1.26.51c-.38.2-.78.51-.83.78a.17.17,0,0,0,0,.1v0l0,.07.12.34c.07.23.13.46.19.68a5.88,5.88,0,0,0,.46,1.24,3.24,3.24,0,0,0,2,1.46,3.56,3.56,0,0,0,1.29.17,3.8,3.8,0,0,0,1.26-.37,3.49,3.49,0,0,0,1.79-2,5.3,5.3,0,0,0,.13-2.74m0,0a5.9,5.9,0,0,1,0,2.77A3.82,3.82,0,0,1,119.59,90a3.62,3.62,0,0,1-2.83.44,3.6,3.6,0,0,1-2.41-1.68,6.58,6.58,0,0,1-.48-1.37l-.17-.67-.09-.31,0-.1,0-.14a1,1,0,0,1,0-.25,1.22,1.22,0,0,1,.51-.68,3.28,3.28,0,0,1,.65-.37,7.4,7.4,0,0,1,1.36-.43,12.53,12.53,0,0,1,2.79-.29,6.56,6.56,0,0,1,1.39.14,2.39,2.39,0,0,1,.65.23.81.81,0,0,1,.44.52" style="fill: #807f83"/>
      <path d="M107,87.61a1.56,1.56,0,0,1,.91.32,1.51,1.51,0,0,1,.55.79,1.39,1.39,0,0,1-.91-.31,1.48,1.48,0,0,1-.55-.8" style="fill: #807f83"/>
      <path d="M68.19,85.22l1.61-.88,2-.82,2.38-.79,1.64-.17,2-.08a15.75,15.75,0,0,1,1.75.4c0,.06,1.78.66,1.78.66l2.08.95,1.79,1.08,1.32,1,2.72,2,1.15.65.4.52L89.22,91l-2.68.94-2.35.64-3,.29-2.59-.17-2.92-.76-2-1-1.52-1.16-2-1.74L69,86.68Z" style="fill: #807f83"/>
      <path d="M68.19,85.22,69,86.66h0L70.32,88h0l1.74,1.46c.29.26.59.45.9.69l.91.68,0,0,2,1,0,0,2.93.72h0l2.59.14h0l3-.3h0l2.35-.65h0l2.67-1-.08,0,1.61-1.22L90.6,90l-.4-.52.09.08-1.16-.66h0l-2-1.51-1-.77-1-.78,0,0-1.79-1.09h0l-2.08-1h0l-.88-.32c-.29-.11-.57-.2-.88-.35a1,1,0,0,0-.39-.13l-.45-.11-.9-.18h0l-1.83,0c-.29,0-.61,0-.91.07l-.91.08h0l-2.4.74h0l-2,.79h0Zm0,0,1.59-.92h0l2-.86h0l2.37-.84h0l.91-.11c.31,0,.59-.08.93-.09l1.83-.09h0l.92.17.46.09a1.43,1.43,0,0,1,.48.16c.25.11.56.21.85.31l.87.29h0l2.08.94h0l1.79,1.07h0l1,.77c.33.26.66.5,1,.75l2,1.5,0,0,1.16.65,0,0,0,0,.41.51.18.24L91,90l-1.62,1.22,0,0h0l-2.68.94h0l-2.35.63h0l-3,.27h0l-2.6-.18h0l-2.91-.8h0l-1.95-1h0l-.9-.7c-.29-.24-.61-.47-.88-.74L70.2,88.12h0L69,86.71h0Z" style="fill: #807f83"/>
      <path d="M67.87,82.68a3.47,3.47,0,0,1,1.37.6,3.27,3.27,0,0,1,1,1.09,3.54,3.54,0,0,1-1.37-.6,3.37,3.37,0,0,1-1-1.09" style="fill: #807f83"/>
      <path d="M66.87,83.52a2.57,2.57,0,0,1,1.18.58,2.64,2.64,0,0,1,.81,1,2.57,2.57,0,0,1-1.18-.58,2.64,2.64,0,0,1-.81-1" style="fill: #807f83"/>
      <path d="M70.3,81.8a2.23,2.23,0,0,1,.86.8,2.19,2.19,0,0,1,.36,1.12A2.33,2.33,0,0,1,70.3,81.8" style="fill: #807f83"/>
      <path d="M72,81.19a2.38,2.38,0,0,1,.8.94A2.32,2.32,0,0,1,73,83.34a2.38,2.38,0,0,1-.8-.94A2.53,2.53,0,0,1,72,81.19" style="fill: #807f83"/>
      <path d="M73.94,81a1.74,1.74,0,0,1,.23,1.93A1.74,1.74,0,0,1,73.94,81" style="fill: #807f83"/>
      <path d="M75.56,80.91a1.53,1.53,0,0,1,.34.93,1.48,1.48,0,0,1-.26,1,1.62,1.62,0,0,1-.34-.93,1.59,1.59,0,0,1,.26-1" style="fill: #807f83"/>
      <path d="M77.38,80.49a2,2,0,0,1,.12,1.14A2,2,0,0,1,77,82.68a2.1,2.1,0,0,1-.11-1.15,2,2,0,0,1,.47-1" style="fill: #807f83"/>
      <path d="M79.49,81A1.73,1.73,0,0,1,79,82.89a1.63,1.63,0,0,1,0-1,1.7,1.7,0,0,1,.55-.86" style="fill: #807f83"/>
      <path d="M81.15,82a1.21,1.21,0,0,1,.16.84,1.17,1.17,0,0,1-.43.73,1.13,1.13,0,0,1-.16-.83,1.2,1.2,0,0,1,.43-.74" style="fill: #807f83"/>
      <path d="M83.1,82.34A1.83,1.83,0,0,1,82,84a1.71,1.71,0,0,1,.33-1,1.69,1.69,0,0,1,.81-.66" style="fill: #807f83"/>
      <path d="M84.63,83.34a1.42,1.42,0,0,1-.36.88,1.36,1.36,0,0,1-.82.49,1.54,1.54,0,0,1,1.18-1.37" style="fill: #807f83"/>
      <path d="M86.29,84a1.61,1.61,0,0,1-.45.92,1.64,1.64,0,0,1-.88.51,1.64,1.64,0,0,1,.45-.92,1.68,1.68,0,0,1,.88-.51" style="fill: #807f83"/>
      <path d="M87.59,85.09a1.55,1.55,0,0,1-.56.82,1.59,1.59,0,0,1-.94.36,1.59,1.59,0,0,1,.57-.83,1.55,1.55,0,0,1,.93-.35" style="fill: #807f83"/>
      <path d="M88.33,86.51a1,1,0,0,1-.47.61.93.93,0,0,1-.75.09.93.93,0,0,1,.46-.61,1,1,0,0,1,.76-.09" style="fill: #807f83"/>
      <path d="M66.57,86.64a2.21,2.21,0,0,1,.92-.71,2.17,2.17,0,0,1,1.15-.16,2,2,0,0,1-.92.71,2.08,2.08,0,0,1-1.15.16" style="fill: #807f83"/>
      <path d="M67.29,87.77a1.87,1.87,0,0,1,.8-.76,1.9,1.9,0,0,1,1.08-.23,1.87,1.87,0,0,1-.8.76,2,2,0,0,1-1.08.23" style="fill: #807f83"/>
      <path d="M69.85,87.52a1.94,1.94,0,0,1-.74.87,2,2,0,0,1-1.08.38,1.94,1.94,0,0,1,.74-.87,2.12,2.12,0,0,1,1.08-.38" style="fill: #807f83"/>
      <path d="M69.12,89.68a23.47,23.47,0,0,0,1.76-1.62" style="fill: #807f83"/>
      <path d="M69.12,89.68a2.53,2.53,0,0,1,.71-1,3.48,3.48,0,0,1,.48-.35,4.91,4.91,0,0,1,.57-.25,1.12,1.12,0,0,1-.25.6,3.47,3.47,0,0,1-.4.45,2.4,2.4,0,0,1-1.11.57" style="fill: #807f83"/>
      <path d="M70.18,90.58a1.63,1.63,0,0,1,.47-.92,1.58,1.58,0,0,1,.9-.51,1.69,1.69,0,0,1-.47.92,1.74,1.74,0,0,1-.9.51" style="fill: #807f83"/>
      <path d="M71.72,91.38A1.49,1.49,0,0,1,72.88,90a1.46,1.46,0,0,1-.35.88,1.41,1.41,0,0,1-.81.48" style="fill: #807f83"/>
      <path d="M73.62,92.26a1.23,1.23,0,0,1,.17-.83,1.21,1.21,0,0,1,.68-.5,1.17,1.17,0,0,1-.17.83,1.21,1.21,0,0,1-.68.5" style="fill: #807f83"/>
      <path d="M75.61,93.44a1.07,1.07,0,0,1-.07-.83,1.13,1.13,0,0,1,.5-.67,1.07,1.07,0,0,1,.07.83,1.14,1.14,0,0,1-.5.67" style="fill: #807f83"/>
      <path d="M77.71,93.85a1.21,1.21,0,0,1-.28-.83,1.27,1.27,0,0,1,.32-.81A1.23,1.23,0,0,1,78,93a1.27,1.27,0,0,1-.32.81" style="fill: #807f83"/>
      <path d="M79.53,93.78a.93.93,0,0,1-.3-.67.89.89,0,0,1,.3-.68.91.91,0,0,1,0,1.35" style="fill: #807f83"/>
      <path d="M81,94.13a1.51,1.51,0,0,1-.27-.95,1.41,1.41,0,0,1,.32-.92,1.48,1.48,0,0,1,.27.94,1.52,1.52,0,0,1-.32.93" style="fill: #807f83"/>
      <path d="M82.21,92.35a1.41,1.41,0,0,1,.39.84,1.35,1.35,0,0,1-.19.91,1.35,1.35,0,0,1-.4-.84,1.42,1.42,0,0,1,.2-.91" style="fill: #807f83"/>
      <path d="M83.74,93.6a1,1,0,0,1-.43-.63,1,1,0,0,1,.15-.76,1,1,0,0,1,.43.64.93.93,0,0,1-.15.75" style="fill: #807f83"/>
      <path d="M85.12,93.37a.86.86,0,0,1-.32-1.26.86.86,0,0,1,.45.56.89.89,0,0,1-.13.7" style="fill: #807f83"/>
      <path d="M86.42,92.49c-.27,0-.38,0-.46-.14a.46.46,0,0,1,.05-.48c.27,0,.38,0,.45.15a.43.43,0,0,1,0,.47" style="fill: #807f83"/>
      <path d="M87.84,92a.47.47,0,0,1-.48-.13.5.5,0,0,1,0-.5.42.42,0,0,1,.49.63" style="fill: #807f83"/>
      <path d="M88.28,88.11a.72.72,0,0,1,.23-.59.68.68,0,0,1,.62-.14.69.69,0,0,1-.23.59.7.7,0,0,1-.62.14" style="fill: #807f83"/>
      <path d="M82.22,87.32a2.52,2.52,0,1,1-2.51-2.51,2.52,2.52,0,0,1,2.51,2.51" style="fill: #00b1b0"/>
      <path d="M70.83,86.21l.87,1.35L74,90.11l2.47,1.4,1.79.51,1.8.22c.56.06,2,0,2,0l2.49-.18,3.4-1,1.49-.88-2.12-1.87-1.65-1.14-1.1-.61-1.41-.44-.07,1.65L82.54,89l-.3.68-.56.37L80.75,90l-.62-.59-.55-.61-.55.09-.36.6-.89.24-.9-1.05-.3-1.25.12-1.21s.56-1.62.39-1.62-1.73-.15-1.73-.15l-1.84.37Z" style="fill: #fff"/>
      <path d="M81.12,85.77a1.41,1.41,0,1,1-1.41-1.41,1.41,1.41,0,0,1,1.41,1.41" style="fill: #807f83"/>
      <path d="M120.16,87.32a2.51,2.51,0,1,1-2.51-2.51,2.51,2.51,0,0,1,2.51,2.51" style="fill: #00b1b0"/>
      <path d="M119.06,85.77a1.41,1.41,0,1,1-1.41-1.41,1.41,1.41,0,0,1,1.41,1.41" style="fill: #807f83"/>
      <path d="M119.11,89.42c0,.52-.74,1-1.62,1s-1.62-.44-1.62-1,.73-1,1.62-1,1.62.43,1.62,1" style="fill: #fff"/>
    </g>
  </g>
</svg>
